<?xml version="1.0" standalone="no"?>
<!DOCTYPE svg PUBLIC "-//W3C//DTD SVG 20010904//EN"
 "http://www.w3.org/TR/2001/REC-SVG-20010904/DTD/svg10.dtd">
<svg version="1.0" xmlns="http://www.w3.org/2000/svg"
 width="363.000000pt" height="201.000000pt" viewBox="0 0 363.000000 201.000000"
 preserveAspectRatio="xMidYMid meet">
<metadata>
Created by potrace 1.16, written by Peter Selinger 2001-2019
</metadata>
<g transform="translate(0.000000,201.000000) scale(0.100000,-0.100000)"
fill="#000000" stroke="none">
<path d="M1321 1445 l-74 -114 -51 20 c-28 11 -64 26 -81 34 -66 30 -32 66
-415 -443 -111 -148 -116 -153 -145 -148 -16 4 -48 8 -70 11 l-40 5 -142 -162
c-78 -90 -140 -164 -138 -166 2 -2 75 1 162 8 87 6 220 14 295 17 75 3 141 9
147 12 5 4 14 35 20 70 6 34 23 103 38 152 l28 89 98 0 98 0 49 105 c102 219
136 280 181 326 25 26 52 62 59 80 18 47 56 96 80 104 27 9 145 -36 269 -102
83 -44 393 -225 409 -239 2 -1 -89 -138 -203 -304 -114 -166 -205 -303 -202
-306 2 -2 51 15 108 40 110 46 131 53 247 87 44 13 76 28 82 39 6 10 10 46 10
79 0 41 5 64 16 75 8 9 17 16 19 16 8 0 172 32 187 36 22 7 43 66 68 194 34
169 58 240 83 240 7 0 37 -25 67 -56 108 -110 314 -285 533 -451 122 -92 253
-194 290 -227 38 -32 70 -56 72 -54 2 2 -73 112 -168 244 -95 133 -192 271
-217 307 -25 37 -49 66 -55 66 -5 0 -32 -31 -60 -69 -58 -80 -49 -84 -141 50
-32 47 -73 106 -91 133 -18 26 -49 71 -69 100 -20 28 -52 73 -71 99 l-34 47
-142 -91 c-78 -50 -172 -110 -209 -134 -37 -24 -70 -44 -74 -44 -6 0 -74 49
-316 228 -125 92 -103 89 -197 26 -34 -23 -35 -23 -65 -5 -109 66 -152 91
-161 91 -5 -1 -43 -52 -84 -115z"/>
</g>
</svg>
