<svg id="bank_1_" data-name="bank (1)" xmlns="http://www.w3.org/2000/svg" width="40" height="40" viewBox="0 0 40 40">
  <g id="Group_546" data-name="Group 546">
    <g id="Group_545" data-name="Group 545">
      <path id="Path_377" data-name="Path 377" d="M195.6,63.979a3.638,3.638,0,1,0,3.638,3.638A3.642,3.642,0,0,0,195.6,63.979Zm0,5.458a1.82,1.82,0,1,1,1.82-1.82A1.822,1.822,0,0,1,195.6,69.437Z" transform="translate(-175.598 -58.526)"/>
      <path id="Path_378" data-name="Path 378" d="M39.091,16.364A.906.906,0,0,0,40,15.457V11.821a.907.907,0,0,0-.445-.781L21.772.479,21.748.465a3.525,3.525,0,0,0-3.521.012L.445,11.04A.907.907,0,0,0,0,11.821v3.636a.906.906,0,0,0,.909.907H3.636V32.728A3.64,3.64,0,0,0,0,36.364v2.727A.909.909,0,0,0,.909,40H39.091A.909.909,0,0,0,40,39.091V36.364a3.64,3.64,0,0,0-3.636-3.636V16.364Zm-.909,20v1.818H1.818V36.364a1.821,1.821,0,0,1,1.818-1.818H36.364A1.82,1.82,0,0,1,38.182,36.364ZM5.455,32.727V16.364H9.091V32.727Zm5.455,0V16.364h5.455V32.727Zm7.273,0V16.364h3.636V32.727Zm5.455,0V16.364h5.455V32.727Zm7.273,0V16.364h3.636V32.727ZM1.818,14.546v-2.21L19.129,2.052a1.73,1.73,0,0,1,1.728-.006l17.325,10.29v2.21Z" transform="translate(0 0)"/>
    </g>
  </g>
</svg>
