<svg id="delete" xmlns="http://www.w3.org/2000/svg" width="20" height="20" viewBox="0 0 20 20">
  <g id="Group_552" data-name="Group 552" transform="translate(0)">
    <g id="Group_551" data-name="Group 551" transform="translate(0)">
      <path id="Path_379" data-name="Path 379" d="M49,2.344H45.667V1.758a1.893,1.893,0,0,0-2-1.758H38.333a1.893,1.893,0,0,0-2,1.758v.586H33A1.893,1.893,0,0,0,31,4.1a1.8,1.8,0,0,0,1.378,1.67l1.189,12.616A1.928,1.928,0,0,0,35.56,20H46.44a1.928,1.928,0,0,0,1.993-1.612L49.622,5.772A1.8,1.8,0,0,0,51,4.1,1.893,1.893,0,0,0,49,2.344ZM37.667,1.758a.631.631,0,0,1,.667-.586h5.333a.631.631,0,0,1,.667.586v.586H37.667ZM47.1,18.291a.643.643,0,0,1-.664.537H35.56a.643.643,0,0,1-.664-.537L33.724,5.859H48.276ZM49,4.688H33a.631.631,0,0,1-.667-.586A.631.631,0,0,1,33,3.516H49a.631.631,0,0,1,.667.586A.631.631,0,0,1,49,4.688Z" transform="translate(-31)"/>
    </g>
  </g>
  <g id="Group_554" data-name="Group 554" transform="translate(5.334 7.031)">
    <g id="Group_553" data-name="Group 553" transform="translate(0)">
      <path id="Path_380" data-name="Path 380" d="M153,190l-.667-9.453a.643.643,0,0,0-.707-.549.618.618,0,0,0-.624.621l.667,9.453a.637.637,0,0,0,.665.55A.624.624,0,0,0,153,190Z" transform="translate(-150.999 -179.999)"/>
    </g>
  </g>
  <g id="Group_556" data-name="Group 556" transform="translate(9.334 7.031)">
    <g id="Group_555" data-name="Group 555">
      <path id="Path_381" data-name="Path 381" d="M241.667,180a.63.63,0,0,0-.667.586v9.453a.672.672,0,0,0,1.333,0v-9.453A.63.63,0,0,0,241.667,180Z" transform="translate(-241 -180)"/>
    </g>
  </g>
  <g id="Group_558" data-name="Group 558" transform="translate(12.666 7.031)">
    <g id="Group_557" data-name="Group 557" transform="translate(0)">
      <path id="Path_382" data-name="Path 382" d="M317.374,180a.643.643,0,0,0-.707.549L316,190a.618.618,0,0,0,.624.621.642.642,0,0,0,.707-.549l.667-9.453A.618.618,0,0,0,317.374,180Z" transform="translate(-315.999 -180)"/>
    </g>
  </g>
</svg>
