<svg id="location" xmlns="http://www.w3.org/2000/svg" width="40" height="40" viewBox="0 0 40 40">
  <path id="_x36_" d="M47.173,96.268a.623.623,0,0,1-.62.628.631.631,0,0,1-.629-.628V88.405a1.837,1.837,0,0,1,.6-1.353,2.038,2.038,0,0,1,1.391-.539h7.327a2.017,2.017,0,0,1,1.391.539,1.839,1.839,0,0,1,.6,1.353v7.862a.623.623,0,0,1-.62.628.631.631,0,0,1-.629-.628V88.405a.6.6,0,0,0-.2-.442.821.821,0,0,0-.549-.2H52.2v8.508a.623.623,0,0,1-.62.628.631.631,0,0,1-.629-.628V87.76H47.917a.816.816,0,0,0-.54.2.611.611,0,0,0-.2.442v7.863Z" transform="translate(-31.583 -59.478)"/>
  <path id="_x35_" d="M42.922,43.049h4.093a.616.616,0,0,1,.62.619v3.8a.615.615,0,0,1-.62.618H42.922a.615.615,0,0,1-.62-.618v-3.8A.616.616,0,0,1,42.922,43.049Zm0-7.562h4.093a.616.616,0,0,1,.62.619v3.8a.616.616,0,0,1-.62.619H42.922a.616.616,0,0,1-.62-.619v-3.8A.616.616,0,0,1,42.922,35.487Zm3.464,1.247H43.551v2.547h2.835Zm6.839,2.547a.623.623,0,0,1,.62.628.616.616,0,0,1-.62.619H51.179a.624.624,0,0,1-.629-.619v-3.8a.623.623,0,0,1,.629-.619.616.616,0,0,1,.62.619v3.175Zm-2.046,3.767h4.084a.623.623,0,0,1,.629.619v3.8a.623.623,0,0,1-.629.618H51.179a.623.623,0,0,1-.629-.618v-3.8A.624.624,0,0,1,51.179,43.049ZM54.643,44.3H51.8v2.547h2.844Zm-8.257,0H43.551v2.547h2.835Z" transform="translate(-29.094 -24.397)"/>
  <path id="_x34_" d="M81.589,19.155a.623.623,0,0,1-.85.221.711.711,0,0,1-.23-.23l-5.369-9.083a6.782,6.782,0,1,1,12.474-1.6,6.61,6.61,0,0,1-.638,1.592Zm-.531-1.539,4.837-8.181a5.386,5.386,0,0,0,.514-1.282A5.528,5.528,0,1,0,75.529,6.765,5.875,5.875,0,0,0,75.7,8.154a5.789,5.789,0,0,0,.5,1.264Z" transform="translate(-51.062 0)"/>
  <path id="_x33_" d="M88,10.1a3.606,3.606,0,0,1,2.551,1.061,3.562,3.562,0,0,1,1.063,2.547A3.611,3.611,0,0,1,88,17.319a3.641,3.641,0,0,1-2.56-1.052,3.592,3.592,0,0,1-1.054-2.556,3.555,3.555,0,0,1,1.054-2.547A3.612,3.612,0,0,1,88,10.1Zm1.665,1.937a2.361,2.361,0,1,0,0,3.343,2.347,2.347,0,0,0,0-3.343Z" transform="translate(-58.003 -6.946)"/>
  <path id="_x32_" d="M33,94.466a.623.623,0,0,1-.62-.628.616.616,0,0,1,.62-.619h2.268a1.9,1.9,0,0,1,1.772,1.167l2.932,7.128a1.787,1.787,0,0,1,.133.9,1.9,1.9,0,0,1-1.9,1.672H2.033A1.909,1.909,0,0,1,.12,102.417a2,2,0,0,1,.133-.9l2.941-7.128a1.9,1.9,0,0,1,1.772-1.167h2.25a.616.616,0,0,1,.62.619.623.623,0,0,1-.62.628H4.965a.635.635,0,0,0-.62.4l-2.932,7.128a.572.572,0,0,0-.053.292.679.679,0,0,0,.346.487.771.771,0,0,0,.328.071H38.2a.706.706,0,0,0,.319-.071.634.634,0,0,0,.346-.487.564.564,0,0,0-.044-.292l-2.932-7.128a.635.635,0,0,0-.62-.4Z" transform="translate(-0.112 -64.088)"/>
  <path id="_x31_" d="M50.082,38.45a.631.631,0,0,1,.629-.628.623.623,0,0,1,.62.628V53.4a.623.623,0,0,1-.62.628H30.724a.623.623,0,0,1-.62-.628V26.07a1.837,1.837,0,0,1,.6-1.353,2.026,2.026,0,0,1,1.391-.548h9.86a.628.628,0,0,1,0,1.256H32.1a.779.779,0,0,0-.549.2.6.6,0,0,0-.2.442V52.786H50.082V38.45Z" transform="translate(-20.715 -16.615)"/>
</svg>
