<svg id="Page-1" xmlns="http://www.w3.org/2000/svg" width="40" height="40" viewBox="0 0 40 40">
  <g id="_022---Cash" data-name="022---Cash">
    <path id="Shape" d="M38.667,12H11.333a.777.777,0,0,0,0,1.538h4.03a12.244,12.244,0,0,0-4.7,10,12.244,12.244,0,0,0,4.7,10H1.333v-20H8A.777.777,0,0,0,8,12H1.333A1.447,1.447,0,0,0,0,13.538v20a1.447,1.447,0,0,0,1.333,1.538H38.667A1.447,1.447,0,0,0,40,33.539v-20A1.447,1.447,0,0,0,38.667,12ZM12,23.539c0-5.514,3.589-10,8-10s8,4.486,8,10-3.589,10-8,10S12,29.052,12,23.539Zm26.667,10H24.637a12.244,12.244,0,0,0,4.7-10,12.244,12.244,0,0,0-4.7-10h14.03Z" transform="translate(0 -3.537)"/>
    <path id="Shape-2" data-name="Shape" d="M44.82,1.161A1.173,1.173,0,0,0,43.8,1.077L29.444,6.63a.8.8,0,0,0-.421.975.652.652,0,0,0,.845.486L44.224,2.538,45.7,7.607a.709.709,0,0,0,.5.511.618.618,0,0,0,.633-.244.862.862,0,0,0,.133-.755L45.49,2.053a1.472,1.472,0,0,0-.67-.892Z" transform="translate(-9.663 -0.999)"/>
    <path id="Shape-3" data-name="Shape" d="M21.127,43.769,6.771,49.322,5.3,44.253a.652.652,0,0,0-.845-.487.8.8,0,0,0-.422.975L5.5,49.805a1.474,1.474,0,0,0,.667.892,1.182,1.182,0,0,0,1.016.085l14.36-5.553a.8.8,0,0,0,.421-.975.652.652,0,0,0-.845-.486Z" transform="translate(-1.332 -10.859)"/>
    <path id="Shape-4" data-name="Shape" d="M30.333,22.231a.674.674,0,1,0,1.333,0A3.431,3.431,0,0,0,29,18.839v-.07a.674.674,0,1,0-1.333,0v.07a3.49,3.49,0,0,0,0,6.783v3.8a1.921,1.921,0,0,1-1.333-1.8.674.674,0,1,0-1.333,0,3.431,3.431,0,0,0,2.667,3.392v.07a.674.674,0,1,0,1.333,0v-.07a3.49,3.49,0,0,0,0-6.783v-3.8A1.921,1.921,0,0,1,30.333,22.231Zm-4,0a1.921,1.921,0,0,1,1.333-1.8v3.609a1.921,1.921,0,0,1-1.333-1.8Zm4,5.385A1.921,1.921,0,0,1,29,29.42V25.811a1.921,1.921,0,0,1,1.333,1.8Z" transform="translate(-8.333 -4.922)"/>
    <path id="Shape-5" data-name="Shape" d="M50.667,36.615h2.667A.723.723,0,0,0,54,35.846V32.769a.674.674,0,1,0-1.333,0v2.308h-2a.777.777,0,0,0,0,1.538Z" transform="translate(-16.667 -8.152)"/>
    <path id="Shape-6" data-name="Shape" d="M4.667,32A.723.723,0,0,0,4,32.769v3.077a.723.723,0,0,0,.667.769H7.333a.777.777,0,0,0,0-1.538h-2V32.769A.723.723,0,0,0,4.667,32Z" transform="translate(-1.333 -8.152)"/>
    <path id="Shape-7" data-name="Shape" d="M7.333,16H4.667A.723.723,0,0,0,4,16.769v3.077a.723.723,0,0,0,.667.769.723.723,0,0,0,.667-.769V17.538h2a.777.777,0,0,0,0-1.538Z" transform="translate(-1.333 -4.46)"/>
    <path id="Shape-8" data-name="Shape" d="M50.667,17.538h2v2.308a.674.674,0,1,0,1.333,0V16.769A.723.723,0,0,0,53.333,16H50.667a.777.777,0,0,0,0,1.538Z" transform="translate(-16.667 -4.46)"/>
  </g>
</svg>
