<svg id="notification_1_" data-name="notification (1)" xmlns="http://www.w3.org/2000/svg" width="25" height="25" viewBox="0 0 25 25">
  <g id="Group_598" data-name="Group 598">
    <path id="Path_440" data-name="Path 440" d="M42.935,18.677a3.111,3.111,0,0,0-3.205-2.548.335.335,0,0,1-.353-.319V11.06a8.394,8.394,0,0,0-5.941-7.754,2.559,2.559,0,0,0,.062-.552,3.065,3.065,0,0,0-6.1,0,2.673,2.673,0,0,0,.058.536,9.071,9.071,0,0,0-3.21,1.794,7.64,7.64,0,0,0-2.727,5.8V15.81a.338.338,0,0,1-.353.319,3.108,3.108,0,0,0-3.205,2.548,2.658,2.658,0,0,0,.8,2.173,3.3,3.3,0,0,0,2.312.923h5.383a4.081,4.081,0,0,0,7.982,0h5.383a3.3,3.3,0,0,0,2.312-.923A2.672,2.672,0,0,0,42.935,18.677ZM30.45,1.613a1.209,1.209,0,0,1,1.263,1.141.894.894,0,0,1-.018.153,8.736,8.736,0,0,0-.92-.077,10.17,10.17,0,0,0-1.571.081.894.894,0,0,1-.018-.153A1.209,1.209,0,0,1,30.45,1.613Zm0,21.774a2.2,2.2,0,0,1-2.187-1.613h4.375A2.2,2.2,0,0,1,30.45,23.387Zm10.365-3.621a1.4,1.4,0,0,1-.991.4H21.075a1.4,1.4,0,0,1-.991-.4,1.114,1.114,0,0,1-.339-.935,1.367,1.367,0,0,1,1.428-1.089,2.046,2.046,0,0,0,2.138-1.931V10.887a6.116,6.116,0,0,1,2.183-4.641A7.47,7.47,0,0,1,30.45,4.435c.089,0,.174,0,.263,0a6.927,6.927,0,0,1,6.879,6.621v4.75a2.046,2.046,0,0,0,2.138,1.931,1.367,1.367,0,0,1,1.428,1.089A1.135,1.135,0,0,1,40.815,19.766Z" transform="translate(-17.95 0)"/>
    <path id="Path_441" data-name="Path 441" d="M19.412,51.258a.876.876,0,0,0,.87-.633,9.21,9.21,0,0,1,2.839-4.665.754.754,0,0,0,0-1.141.964.964,0,0,0-1.263,0,10.779,10.779,0,0,0-3.321,5.464.8.8,0,0,0,.679.96A1.141,1.141,0,0,0,19.412,51.258Z" transform="translate(-18.473 -41.581)"/>
    <path id="Path_442" data-name="Path 442" d="M291.375,51.2a1.038,1.038,0,0,0,.192-.02.807.807,0,0,0,.678-.96,10.8,10.8,0,0,0-3.321-5.464.964.964,0,0,0-1.263,0,.754.754,0,0,0,0,1.141,9.241,9.241,0,0,1,2.839,4.665A.884.884,0,0,0,291.375,51.2Z" transform="translate(-267.314 -41.524)"/>
  </g>
</svg>
