<svg id="smartphone" xmlns="http://www.w3.org/2000/svg" width="49.711" height="76.298" viewBox="0 0 49.711 76.298">
  <path id="Path_384" data-name="Path 384" d="M56.259,81.3a7.775,7.775,0,0,0,7.951-7.566V12.566A7.775,7.775,0,0,0,56.259,5H22.451A7.774,7.774,0,0,0,14.5,12.566V73.732A7.775,7.775,0,0,0,22.451,81.3ZM17.707,19.433a4.639,4.639,0,0,1,4.743-4.514H56.259A4.639,4.639,0,0,1,61,19.433V66.865a4.639,4.639,0,0,1-4.744,4.515H22.451a4.639,4.639,0,0,1-4.743-4.515ZM22.451,8.052H56.259A4.639,4.639,0,0,1,61,12.566V13.4a8.139,8.139,0,0,0-4.744-1.531H22.451A8.137,8.137,0,0,0,17.707,13.4v-.832a4.639,4.639,0,0,1,4.743-4.514Zm-4.743,65.68V72.9a8.136,8.136,0,0,0,4.743,1.531H56.259A8.137,8.137,0,0,0,61,72.9v.831a4.639,4.639,0,0,1-4.744,4.515H22.451a4.639,4.639,0,0,1-4.743-4.515Z" transform="translate(-14.5 -5)" fill="#4375ff"/>
  <path id="Path_385" data-name="Path 385" d="M36.413,51.8c9.394,0,17.038-7.274,17.038-16.213S45.807,19.375,36.413,19.375,19.375,26.649,19.375,35.588,27.019,51.8,36.413,51.8Zm0-29.375c7.626,0,13.831,5.9,13.831,13.161S44.039,48.75,36.413,48.75s-13.831-5.9-13.831-13.161S28.787,22.427,36.413,22.427Z" transform="translate(-11.558 2.561)" fill="#4375ff"/>
  <path id="Path_386" data-name="Path 386" d="M29.661,37.44a1.661,1.661,0,0,0,2.268,0l9.12-8.679a1.474,1.474,0,0,0,0-2.158,1.661,1.661,0,0,0-2.268,0l-7.987,7.6-3.276-3.117a1.661,1.661,0,0,0-2.268,0,1.474,1.474,0,0,0,0,2.158Z" transform="translate(-8.294 6.127)" fill="#4375ff"/>
</svg>
