<svg id="wall-clock" xmlns="http://www.w3.org/2000/svg" width="30" height="30" viewBox="0 0 30 30">
  <g id="Group_597" data-name="Group 597">
    <g id="Group_596" data-name="Group 596">
      <path id="Path_434" data-name="Path 434" d="M416.483,376.958a1.172,1.172,0,0,0-1.64.241c-.212.286-.44.566-.676.833a1.172,1.172,0,1,0,1.756,1.552c.279-.316.549-.648.8-.986A1.172,1.172,0,0,0,416.483,376.958Z" transform="translate(-389.623 -354.653)" fill="#daa545"/>
      <path id="Path_435" data-name="Path 435" d="M464.234,286.451a1.172,1.172,0,0,0-1.394.9c-.076.348-.167.7-.272,1.036a1.172,1.172,0,1,0,2.239.692c.125-.4.233-.817.323-1.229A1.172,1.172,0,0,0,464.234,286.451Z" transform="translate(-435.415 -269.642)" fill="#daa545"/>
      <path id="Path_436" data-name="Path 436" d="M335.673,442.342c-.311.174-.633.336-.957.482a1.172,1.172,0,1,0,.965,2.136c.385-.174.766-.366,1.135-.572a1.172,1.172,0,1,0-1.143-2.046Z" transform="translate(-314.454 -416.284)" fill="#daa545"/>
      <path id="Path_437" data-name="Path 437" d="M161.444,77.172v8.89l-4.3,4.3a1.172,1.172,0,0,0,1.657,1.657l4.64-4.64a1.172,1.172,0,0,0,.343-.829V77.172a1.172,1.172,0,0,0-2.344,0Z" transform="translate(-147.616 -71.547)" fill="#daa545"/>
      <path id="Path_438" data-name="Path 438" d="M28.828,2.52a1.172,1.172,0,0,0-1.172,1.172V6.945A15,15,0,1,0,15,30h.059c.422,0,.849-.018,1.268-.053a1.172,1.172,0,1,0-.2-2.336c-.354.03-.715.045-1.072.045H15a12.656,12.656,0,1,1,10.895-19.1H22.672a1.172,1.172,0,1,0,0,2.344H26.25a3.727,3.727,0,0,0,1.95-.548,1.17,1.17,0,0,0,.105-.068A3.749,3.749,0,0,0,30,7.148V3.691A1.172,1.172,0,0,0,28.828,2.52Z" fill="#daa545"/>
    </g>
  </g>
</svg>
