<svg id="Withdraw" xmlns="http://www.w3.org/2000/svg" width="16" height="16" viewBox="0 0 16 16">
  <path id="Download" d="M20,18.818V15.909a.669.669,0,1,0-1.333,0v2.909a.7.7,0,0,1-.667.727H6a.7.7,0,0,1-.667-.727V15.909a.7.7,0,0,0-.667-.727A.7.7,0,0,0,4,15.909v2.909A2.1,2.1,0,0,0,6,21H18a2.1,2.1,0,0,0,2-2.182Zm-4.253-3.8-3.333,2.909a.624.624,0,0,1-.827,0L8.253,15.022a.776.776,0,0,1-.064-.981.63.63,0,0,1,.891-.153l2.253,1.964V5.727a.669.669,0,1,1,1.333,0V15.851l2.253-1.964a.626.626,0,0,1,.685-.155.718.718,0,0,1,.435.6A.754.754,0,0,1,15.747,15.022Z" transform="translate(-4 -5)" fill="#4375ff"/>
</svg>
